<svg xmlns="http://www.w3.org/2000/svg" xmlns:xlink="http://www.w3.org/1999/xlink" width="150" zoomAndPan="magnify" viewBox="0 0 112.5 74.999997" height="100" preserveAspectRatio="xMidYMid meet" version="1.0"><defs><g/><clipPath id="855d8c319b"><path d="M 4.707031 20.125 L 107 20.125 L 107 55 L 4.707031 55 Z M 4.707031 20.125 " clip-rule="nonzero"/></clipPath></defs><g clip-path="url(#855d8c319b)"><path fill="#268b5e" d="M 105.835938 38.453125 C 105.128906 38.578125 104.921875 38.722656 104.210938 38.679688 C 103.339844 38.621094 101.945312 38.371094 101.070312 38.496094 C 100.382812 38.597656 100.175781 39.097656 99.53125 39.328125 C 99.507812 39.328125 99.175781 39.328125 98.949219 39.347656 C 98.824219 39.347656 98.71875 39.285156 98.65625 39.203125 C 98.574219 39.078125 98.46875 38.929688 98.449219 38.910156 C 98.074219 38.328125 97.53125 38.035156 96.949219 37.683594 C 96.511719 37.414062 96.261719 37.015625 95.953125 36.621094 C 95.722656 36.332031 95.453125 36.082031 95.160156 35.808594 C 94.328125 35.0625 93.640625 34.1875 92.808594 33.4375 C 92.476562 33.125 92.121094 32.835938 91.726562 32.585938 C 91.101562 32.1875 90.667969 31.691406 89.957031 31.417969 C 88.128906 30.710938 86.523438 30.941406 84.632812 31.023438 C 84.527344 31.023438 82.78125 30.816406 82.757812 30.816406 C 81.113281 30.421875 80.59375 30.484375 78.910156 30.316406 C 78.097656 30.234375 77.265625 30.148438 76.453125 30.023438 C 75.558594 29.898438 74.519531 29.816406 73.625 29.652344 C 72.644531 29.464844 70.042969 29.152344 69.816406 29.171875 C 68.191406 29.003906 66.609375 28.402344 65.007812 28.132812 C 64.40625 28.027344 63.78125 28.007812 63.15625 27.882812 C 62.617188 27.777344 61.449219 27.339844 61.386719 27.363281 C 61.136719 27.320312 60.910156 27.402344 60.617188 27.507812 C 59.371094 28.046875 58.351562 28.941406 57.457031 29.941406 C 56.207031 31.355469 56.621094 31.335938 55.582031 32.917969 C 55.332031 33.292969 53.835938 35.226562 53.605469 35.601562 C 53.335938 36.019531 52.917969 36.433594 52.710938 36.890625 C 52.566406 37.226562 52.417969 37.640625 52.355469 37.996094 C 52.273438 38.410156 52.003906 38.785156 51.816406 39.179688 C 51.359375 40.179688 50.234375 41.867188 50.234375 43.15625 C 50.234375 43.863281 52.417969 43.988281 53.4375 43.925781 C 55.125 43.800781 56.726562 43.175781 58.453125 43.507812 C 59.992188 43.800781 61.304688 44.738281 62.84375 45.050781 C 64.507812 45.382812 66.132812 45.089844 67.714844 44.570312 C 68.941406 44.15625 70.855469 44.132812 72.957031 44.320312 C 74.933594 44.507812 77.308594 45.214844 79.84375 44.550781 C 80.699219 44.320312 81.574219 44.214844 82.445312 44.132812 C 83.425781 44.03125 84.320312 44.257812 85.253906 44.550781 C 86.566406 44.988281 87.605469 45.820312 88.773438 46.566406 C 89.75 47.214844 91.832031 47.921875 91.601562 49.042969 C 91.457031 49.730469 90.125 50.769531 89.460938 50.957031 C 88.792969 51.144531 88.105469 51.167969 87.441406 51.375 C 86.835938 51.5625 86.378906 51.957031 85.839844 52.269531 C 85.109375 52.6875 84.320312 52.664062 83.488281 52.625 C 81.613281 52.519531 79.804688 52.289062 77.953125 52.8125 C 76.390625 53.269531 74.933594 54.039062 73.332031 54.351562 C 72.125 54.578125 71 54.371094 69.816406 54.078125 C 68.652344 53.789062 67.132812 53.226562 65.988281 52.9375 C 64.78125 52.625 63.925781 52.601562 62.71875 52.3125 C 61.929688 52.125 61.097656 51.894531 60.285156 51.9375 C 59.140625 52 57.996094 52.269531 56.832031 52.289062 C 56.144531 52.3125 55.457031 52.25 54.8125 52.039062 C 54.457031 51.914062 54.148438 51.75 53.875 51.519531 C 53.625 51.3125 53.4375 51.042969 53.167969 50.875 C 52.335938 50.335938 51.398438 49.898438 50.484375 49.542969 C 49.902344 49.316406 49.320312 49.230469 48.714844 49.105469 C 48.214844 48.980469 47.695312 48.691406 47.28125 48.378906 C 46.65625 47.921875 45.988281 47.753906 45.28125 47.523438 C 44.449219 47.234375 43.972656 46.464844 43.660156 45.671875 C 42.992188 43.988281 42.847656 41.886719 42.679688 40.117188 C 42.578125 39.117188 42.597656 38.410156 42.222656 37.496094 C 41.871094 36.640625 41.390625 35.871094 40.914062 35.082031 C 39.808594 33.269531 38.476562 30.628906 37.375 28.816406 C 36.5625 27.488281 36.210938 26.882812 34.605469 26.050781 C 34.523438 26.007812 34.460938 25.988281 34.398438 25.945312 C 34.296875 25.238281 34.253906 24.699219 34.273438 23.992188 C 34.273438 23.804688 34.421875 23.386719 34.441406 23.199219 C 34.441406 23.011719 34.296875 22.804688 34.441406 22.742188 C 34.710938 22.617188 35.710938 22.597656 35.710938 22.535156 C 35.648438 22.160156 36.1875 22.410156 36.398438 22.324219 C 36.605469 22.222656 36.625 21.910156 36.5625 21.703125 C 36.5 21.535156 36.3125 21.328125 36.148438 21.328125 C 35.75 21.304688 35.378906 21.347656 34.980469 21.367188 C 34.710938 21.390625 34.398438 21.328125 34.109375 21.367188 C 34.109375 21.328125 34.109375 21.285156 34.109375 21.242188 C 34.109375 21.117188 34.109375 20.996094 34.085938 20.871094 C 34.046875 20.621094 33.898438 20.390625 33.691406 20.265625 C 33.585938 20.183594 33.441406 20.160156 33.296875 20.183594 C 32.734375 20.285156 32.878906 20.660156 32.921875 20.972656 C 32.921875 21.015625 32.964844 21.328125 32.941406 21.367188 C 32.902344 21.429688 32.753906 21.347656 32.691406 21.367188 C 32.484375 21.410156 32.070312 21.410156 31.859375 21.429688 C 31.421875 21.453125 31.421875 21.453125 31.007812 21.472656 C 30.988281 21.472656 30.882812 21.578125 30.882812 21.597656 C 30.839844 21.929688 30.757812 22.035156 31.050781 22.199219 C 31.132812 22.261719 31.214844 22.261719 31.320312 22.261719 C 31.382812 22.410156 31.652344 22.617188 31.734375 22.617188 C 31.945312 22.617188 32.132812 22.597656 32.320312 22.554688 C 32.402344 22.535156 32.546875 22.511719 32.671875 22.511719 C 32.671875 22.554688 32.671875 22.617188 32.691406 22.636719 C 32.714844 22.804688 32.753906 22.972656 32.777344 23.136719 C 32.816406 23.449219 32.859375 23.742188 32.902344 24.054688 C 32.964844 24.636719 33.066406 25.21875 32.984375 25.800781 C 32.441406 26.132812 31.445312 26.675781 30.902344 27.425781 C 30.382812 28.171875 30.402344 28.859375 29.84375 29.566406 C 29.300781 30.234375 28.050781 30.878906 27.679688 31.667969 C 27.28125 32.480469 27.03125 33.730469 26.597656 34.539062 C 26.179688 35.289062 25.722656 35.644531 25.117188 36.269531 C 24.496094 36.933594 23.765625 37.515625 22.953125 37.953125 C 22.207031 38.347656 21.394531 38.578125 20.601562 38.890625 C 19.832031 39.203125 19.167969 39.617188 18.625 40.261719 C 18.023438 40.992188 17.691406 42.011719 17.042969 42.738281 C 16.378906 43.488281 15.503906 43.945312 14.734375 44.589844 C 13.984375 45.214844 13.238281 46.089844 12.195312 46.070312 C 11.46875 46.070312 10.636719 45.777344 9.949219 46.152344 C 9.367188 46.464844 9.011719 47.378906 8.597656 47.898438 C 8.160156 48.441406 7.390625 49.148438 6.871094 49.628906 C 5.828125 50.5625 5.101562 50.042969 4.871094 50.3125 C 4.707031 50.5 5.496094 50.523438 5.703125 50.5 C 6.097656 50.480469 7.078125 50.1875 7.390625 49.960938 C 7.929688 49.542969 8.449219 49.085938 8.886719 48.585938 C 9.40625 48.003906 9.824219 47.214844 10.449219 46.734375 C 11.113281 46.214844 11.84375 46.671875 12.589844 46.671875 C 13.488281 46.671875 13.984375 46.089844 14.632812 45.546875 C 15.402344 44.902344 16.484375 44.152344 17.167969 43.425781 C 17.816406 42.761719 18.355469 42.03125 18.875 41.28125 C 19.417969 40.511719 20.019531 39.910156 20.875 39.515625 C 21.644531 39.160156 22.453125 38.953125 23.226562 38.597656 C 23.972656 38.246094 24.328125 37.765625 24.953125 37.203125 C 26.261719 36.019531 27.53125 34.476562 28.09375 32.8125 C 28.238281 32.398438 28.363281 32.003906 28.613281 31.648438 C 28.863281 31.292969 29.425781 30.960938 29.71875 30.648438 C 30.382812 30.023438 30.550781 29.128906 31.027344 28.359375 C 31.859375 27.027344 33.027344 25.28125 35.210938 26.777344 C 35.960938 27.300781 36.273438 28.296875 36.730469 29.089844 C 37.269531 29.984375 37.832031 30.898438 38.375 31.792969 C 38.914062 32.6875 39.476562 33.605469 40.019531 34.5 C 40.539062 35.351562 41.101562 36.207031 41.472656 37.140625 C 42.222656 38.953125 42.097656 40.949219 42.328125 42.863281 C 42.492188 44.277344 42.742188 46.046875 43.367188 46.503906 C 43.929688 46.921875 44.636719 47.941406 45.28125 48.148438 C 45.675781 48.273438 46.238281 48.398438 46.574219 48.648438 C 46.757812 48.773438 47.050781 48.941406 47.257812 49.042969 C 47.777344 49.335938 48.488281 49.316406 49.046875 49.441406 C 49.652344 49.585938 50.234375 49.667969 50.816406 49.898438 C 51.398438 50.125 51.835938 50.710938 52.398438 51.019531 C 52.542969 51.105469 53.273438 51.792969 53.355469 51.875 C 54.3125 52.75 55.394531 52.582031 56.683594 52.644531 C 57.914062 52.726562 59.121094 52.476562 60.328125 52.351562 C 61.160156 52.269531 62.242188 52.894531 63.074219 52.9375 C 65.113281 53.039062 66.984375 53.871094 69.335938 54.453125 C 70.316406 54.703125 71.773438 54.828125 72.792969 54.808594 C 74.371094 54.765625 75.308594 54.058594 76.765625 53.519531 C 77.535156 53.226562 78.824219 53.019531 79.636719 52.894531 C 80.617188 52.726562 81.636719 52.789062 82.613281 52.851562 C 83.527344 52.914062 84.464844 53.058594 85.378906 52.9375 C 86.027344 52.851562 86.523438 52.539062 87.046875 52.1875 C 87.667969 51.769531 88.292969 51.582031 89.023438 51.457031 C 89.605469 51.355469 90.167969 51.269531 90.6875 51 C 91.289062 50.6875 91.851562 50.125 92.058594 49.441406 C 92.246094 48.855469 92.207031 48.003906 91.832031 47.566406 C 91.3125 47.003906 90.644531 46.964844 90 46.546875 C 89.398438 46.152344 88.792969 45.734375 88.191406 45.382812 C 87.003906 44.675781 85.734375 44.195312 84.421875 43.78125 C 83.613281 43.53125 82.800781 43.382812 81.945312 43.445312 C 81.09375 43.53125 80.261719 43.757812 79.429688 43.863281 C 77.453125 44.09375 76.535156 43.800781 74.582031 43.613281 C 72.605469 43.425781 70.542969 43.050781 68.589844 43.550781 C 66.839844 44.007812 64.15625 44.757812 62.34375 44.382812 C 60.804688 44.070312 59.496094 43.132812 57.933594 42.84375 C 56.269531 42.550781 54.730469 43.070312 53.085938 43.238281 C 52.566406 43.300781 51.253906 43.445312 50.941406 42.925781 C 50.566406 42.324219 51.335938 41.449219 51.648438 40.886719 C 51.984375 40.304688 52.085938 39.722656 52.378906 39.117188 C 52.542969 38.765625 52.753906 38.472656 52.835938 38.097656 C 52.917969 37.660156 53.167969 37.328125 53.398438 36.953125 C 54.375 35.371094 55.417969 33.792969 56.519531 32.273438 C 57.496094 30.941406 57.976562 29.546875 59.390625 28.632812 C 59.867188 28.320312 61.011719 27.882812 61.535156 27.714844 C 61.617188 27.734375 61.679688 27.777344 61.761719 27.796875 C 61.761719 27.820312 61.785156 27.820312 61.785156 27.839844 C 61.949219 28.109375 62.09375 28.382812 62.261719 28.652344 C 63.011719 29.859375 63.21875 31.378906 63.53125 32.730469 C 63.699219 33.5 63.90625 34.25 64.09375 35.019531 C 64.238281 35.644531 64.15625 36.394531 64.507812 36.933594 C 64.613281 37.078125 64.882812 37.433594 65.070312 37.289062 C 65.402344 36.996094 65.882812 36.640625 66.277344 36.414062 C 66.734375 36.144531 67.152344 36.183594 67.609375 36.414062 C 67.902344 36.558594 68.191406 36.746094 68.503906 36.851562 C 68.859375 36.976562 69.253906 36.996094 69.648438 37.039062 C 70.253906 37.121094 70.441406 37.328125 71.023438 37.039062 C 71.855469 36.640625 72.832031 35.746094 73.5625 35.207031 C 74.519531 34.5 75.871094 34.25 76.808594 33.625 C 77.246094 33.332031 77.722656 33.125 78.242188 33.042969 C 79.324219 32.875 80.117188 32.003906 81.15625 31.753906 C 82.09375 31.542969 83.027344 31.398438 83.988281 31.378906 C 85.964844 31.316406 88.066406 30.921875 90 31.585938 C 90.457031 31.730469 90.707031 32.003906 91.0625 32.292969 C 91.25 32.4375 91.5 32.585938 91.664062 32.6875 C 92.082031 32.980469 92.457031 33.355469 92.832031 33.707031 C 93.140625 34 93.414062 34.3125 93.703125 34.644531 C 94.308594 35.3125 95.035156 35.871094 95.578125 36.601562 C 95.953125 37.101562 96.410156 37.539062 96.972656 37.808594 C 97.617188 38.121094 97.761719 38.578125 98.15625 39.054688 C 98.40625 39.390625 98.84375 39.617188 99.261719 39.660156 C 100.03125 39.722656 100.632812 39.117188 101.320312 38.867188 C 102.152344 38.578125 103.128906 38.785156 103.960938 38.867188 C 104.816406 38.953125 106.398438 38.742188 107.207031 38.472656 C 107.292969 38.597656 106.417969 38.347656 105.835938 38.453125 Z M 33.316406 25.78125 C 33.359375 24.90625 33.234375 24.054688 33.109375 23.179688 C 33.046875 22.761719 33.089844 22.304688 32.839844 22.324219 C 32.527344 22.347656 32.027344 22.410156 31.652344 22.304688 C 31.570312 22.199219 31.445312 21.992188 31.359375 21.929688 C 31.339844 21.929688 31.339844 21.910156 31.320312 21.910156 C 31.527344 21.910156 31.757812 21.890625 31.964844 21.890625 C 32.421875 21.867188 32.878906 21.828125 33.339844 21.679688 C 33.359375 21.679688 33.378906 21.660156 33.378906 21.640625 C 33.378906 21.429688 33.171875 21.347656 33.171875 21.140625 C 33.171875 21.035156 33.003906 20.660156 33.089844 20.578125 C 33.109375 20.558594 33.296875 20.496094 33.585938 20.621094 C 33.585938 20.621094 33.710938 21.035156 33.710938 21.140625 C 33.710938 21.328125 33.628906 21.304688 33.710938 21.472656 C 33.984375 21.890625 33.859375 21.828125 34.273438 21.804688 C 34.691406 21.804688 35.6875 21.703125 36.105469 21.703125 C 36.105469 21.722656 36.0625 21.972656 36.042969 21.992188 C 35.9375 22.097656 35.628906 22.035156 35.480469 22.035156 C 35.230469 22.054688 35.148438 22.097656 35.167969 22.347656 C 34.878906 22.285156 34.503906 22.199219 34.234375 22.324219 C 34.148438 22.367188 33.960938 22.429688 33.898438 22.511719 C 33.816406 22.636719 33.878906 23.011719 33.859375 23.179688 C 33.816406 24.03125 33.710938 24.96875 33.878906 25.820312 C 33.710938 25.78125 33.503906 25.757812 33.316406 25.78125 Z M 71.125 30.023438 C 71.125 30.171875 71.125 30.378906 71.0625 30.503906 C 70.960938 30.734375 70.605469 30.691406 70.398438 30.691406 C 70.128906 30.671875 69.835938 30.628906 69.566406 30.566406 C 69.398438 30.523438 69.085938 30.484375 68.984375 30.316406 C 68.816406 30.066406 69.148438 29.777344 69.335938 29.691406 C 69.421875 29.652344 69.503906 29.628906 69.585938 29.609375 C 69.816406 29.628906 70.023438 29.652344 70.253906 29.652344 C 70.378906 29.652344 70.480469 29.652344 70.605469 29.652344 C 70.855469 29.671875 71.105469 29.753906 71.125 30.023438 Z M 80.324219 31.792969 C 79.867188 31.898438 79.304688 32.0625 78.910156 32.292969 C 78.078125 32.773438 77.453125 32.8125 76.578125 33.1875 C 75.683594 33.582031 75.226562 33.917969 74.332031 34.269531 C 73.332031 34.664062 72.542969 35.457031 71.730469 36.144531 C 71.335938 36.453125 70.648438 36.765625 70.128906 36.808594 C 69.734375 36.851562 69.316406 36.765625 68.921875 36.703125 C 68.441406 36.640625 68.089844 36.539062 67.671875 36.308594 C 67.339844 36.144531 67.007812 35.957031 66.632812 35.894531 C 65.988281 35.789062 65.488281 36.578125 65.03125 36.976562 C 65.007812 36.890625 64.695312 36.394531 64.695312 36.289062 C 64.65625 35.894531 64.570312 35.101562 64.46875 34.707031 C 64.28125 33.9375 63.96875 32.480469 63.78125 31.710938 C 63.46875 30.378906 63.613281 30.085938 62.886719 28.902344 C 62.742188 28.671875 62.40625 28.257812 62.261719 28.007812 C 62.40625 28.046875 62.929688 28.152344 63.074219 28.195312 C 63.699219 28.296875 64.320312 28.359375 64.945312 28.484375 C 66.320312 28.714844 67.753906 29.171875 69.128906 29.402344 C 68.941406 29.546875 68.566406 29.839844 68.503906 30.085938 C 68.253906 30.960938 69.585938 31.042969 70.148438 31.085938 C 70.542969 31.128906 70.960938 31.105469 71.292969 30.835938 C 71.5625 30.628906 71.625 30.335938 71.648438 30.003906 C 71.648438 29.878906 71.648438 29.753906 71.625 29.652344 C 72.167969 29.691406 72.730469 29.753906 73.269531 29.859375 C 74.183594 30.023438 75.621094 30.191406 76.535156 30.335938 C 78.203125 30.585938 79.386719 30.628906 81.074219 30.835938 C 81.46875 30.878906 82.382812 30.980469 82.78125 31.042969 C 82.550781 31.066406 81.78125 31.191406 81.550781 31.230469 C 81.15625 31.355469 80.679688 31.691406 80.324219 31.792969 Z M 80.324219 31.792969 " fill-opacity="1" fill-rule="nonzero"/></g><g fill="#1ec373" fill-opacity="1"><g transform="translate(4.065877, 57.351941)"><g><path d="M 7.078125 0 L 5.296875 0 C 4.929688 0 4.566406 -0.046875 4.203125 -0.140625 C 3.847656 -0.234375 3.519531 -0.40625 3.21875 -0.65625 C 2.925781 -0.914062 2.691406 -1.28125 2.515625 -1.75 C 2.335938 -2.21875 2.25 -2.828125 2.25 -3.578125 L 2.25 -8.234375 L 0.109375 -8.234375 L 0.109375 -9.671875 L 2.25 -9.671875 L 2.25 -12.546875 L 3.890625 -12.5625 L 3.890625 -9.671875 L 7.078125 -9.671875 L 7.078125 -8.234375 L 3.890625 -8.234375 L 3.890625 -3.515625 C 3.890625 -3.054688 3.9375 -2.6875 4.03125 -2.40625 C 4.132812 -2.125 4.269531 -1.910156 4.4375 -1.765625 C 4.601562 -1.617188 4.785156 -1.519531 4.984375 -1.46875 C 5.191406 -1.414062 5.40625 -1.390625 5.625 -1.390625 L 7.078125 -1.390625 Z M 7.078125 0 "/></g></g></g><g fill="#1ec373" fill-opacity="1"><g transform="translate(11.691864, 57.351941)"><g><path d="M 3.203125 0 L 1.5625 0 L 1.5625 -9.671875 L 3.140625 -9.671875 L 3.140625 -7.515625 C 3.378906 -8.179688 3.753906 -8.707031 4.265625 -9.09375 C 4.773438 -9.476562 5.378906 -9.671875 6.078125 -9.671875 L 7.015625 -9.671875 L 7.015625 -8.234375 L 6.171875 -8.234375 C 5.597656 -8.234375 5.085938 -8.085938 4.640625 -7.796875 C 4.191406 -7.515625 3.835938 -7.097656 3.578125 -6.546875 C 3.328125 -5.992188 3.203125 -5.328125 3.203125 -4.546875 Z M 3.203125 0 "/></g></g></g><g fill="#1ec373" fill-opacity="1"><g transform="translate(19.05227, 57.351941)"><g><path d="M 5.78125 0.28125 C 5.0625 0.28125 4.394531 0.148438 3.78125 -0.109375 C 3.175781 -0.378906 2.644531 -0.75 2.1875 -1.21875 C 1.738281 -1.6875 1.382812 -2.226562 1.125 -2.84375 C 0.875 -3.46875 0.75 -4.132812 0.75 -4.84375 C 0.75 -5.550781 0.875 -6.210938 1.125 -6.828125 C 1.382812 -7.441406 1.738281 -7.984375 2.1875 -8.453125 C 2.632812 -8.921875 3.160156 -9.285156 3.765625 -9.546875 C 4.378906 -9.816406 5.050781 -9.953125 5.78125 -9.953125 C 6.5 -9.953125 7.164062 -9.816406 7.78125 -9.546875 C 8.394531 -9.285156 8.925781 -8.921875 9.375 -8.453125 C 9.832031 -7.984375 10.1875 -7.441406 10.4375 -6.828125 C 10.695312 -6.210938 10.828125 -5.550781 10.828125 -4.84375 C 10.828125 -4.132812 10.695312 -3.46875 10.4375 -2.84375 C 10.1875 -2.226562 9.832031 -1.6875 9.375 -1.21875 C 8.925781 -0.75 8.394531 -0.378906 7.78125 -0.109375 C 7.164062 0.148438 6.5 0.28125 5.78125 0.28125 Z M 5.796875 -1.265625 C 6.273438 -1.265625 6.71875 -1.351562 7.125 -1.53125 C 7.539062 -1.707031 7.898438 -1.957031 8.203125 -2.28125 C 8.515625 -2.601562 8.753906 -2.976562 8.921875 -3.40625 C 9.097656 -3.84375 9.1875 -4.320312 9.1875 -4.84375 C 9.1875 -5.351562 9.097656 -5.820312 8.921875 -6.25 C 8.753906 -6.6875 8.515625 -7.066406 8.203125 -7.390625 C 7.898438 -7.710938 7.539062 -7.960938 7.125 -8.140625 C 6.71875 -8.316406 6.273438 -8.40625 5.796875 -8.40625 C 5.316406 -8.40625 4.867188 -8.316406 4.453125 -8.140625 C 4.035156 -7.960938 3.671875 -7.710938 3.359375 -7.390625 C 3.054688 -7.066406 2.816406 -6.6875 2.640625 -6.25 C 2.460938 -5.820312 2.375 -5.351562 2.375 -4.84375 C 2.375 -4.320312 2.460938 -3.84375 2.640625 -3.40625 C 2.816406 -2.976562 3.054688 -2.601562 3.359375 -2.28125 C 3.671875 -1.957031 4.035156 -1.707031 4.453125 -1.53125 C 4.867188 -1.351562 5.316406 -1.265625 5.796875 -1.265625 Z M 5.796875 -1.265625 "/></g></g></g><g fill="#1ec373" fill-opacity="1"><g transform="translate(30.624042, 57.351941)"><g><path d="M 3.203125 3.296875 L 1.5625 3.296875 L 1.5625 -9.671875 L 3.125 -9.671875 L 3.125 -7.609375 C 3.351562 -8.054688 3.648438 -8.453125 4.015625 -8.796875 C 4.390625 -9.148438 4.816406 -9.425781 5.296875 -9.625 C 5.773438 -9.832031 6.296875 -9.9375 6.859375 -9.9375 C 7.535156 -9.9375 8.160156 -9.804688 8.734375 -9.546875 C 9.316406 -9.285156 9.828125 -8.921875 10.265625 -8.453125 C 10.703125 -7.984375 11.035156 -7.441406 11.265625 -6.828125 C 11.503906 -6.210938 11.625 -5.550781 11.625 -4.84375 C 11.625 -4.132812 11.503906 -3.46875 11.265625 -2.84375 C 11.023438 -2.226562 10.6875 -1.6875 10.25 -1.21875 C 9.820312 -0.75 9.320312 -0.378906 8.75 -0.109375 C 8.175781 0.148438 7.550781 0.28125 6.875 0.28125 C 6.34375 0.28125 5.835938 0.1875 5.359375 0 C 4.878906 -0.1875 4.453125 -0.453125 4.078125 -0.796875 C 3.703125 -1.140625 3.398438 -1.546875 3.171875 -2.015625 L 3.203125 -0.921875 Z M 6.59375 -1.25 C 7.0625 -1.25 7.5 -1.332031 7.90625 -1.5 C 8.320312 -1.675781 8.6875 -1.921875 9 -2.234375 C 9.3125 -2.554688 9.554688 -2.9375 9.734375 -3.375 C 9.910156 -3.820312 10 -4.3125 10 -4.84375 C 10 -5.363281 9.910156 -5.84375 9.734375 -6.28125 C 9.554688 -6.71875 9.3125 -7.09375 9 -7.40625 C 8.6875 -7.726562 8.320312 -7.976562 7.90625 -8.15625 C 7.5 -8.332031 7.0625 -8.421875 6.59375 -8.421875 C 6.113281 -8.421875 5.664062 -8.328125 5.25 -8.140625 C 4.84375 -7.960938 4.484375 -7.707031 4.171875 -7.375 C 3.867188 -7.050781 3.628906 -6.671875 3.453125 -6.234375 C 3.273438 -5.796875 3.1875 -5.332031 3.1875 -4.84375 C 3.1875 -4.320312 3.273438 -3.84375 3.453125 -3.40625 C 3.628906 -2.96875 3.875 -2.585938 4.1875 -2.265625 C 4.507812 -1.941406 4.875 -1.691406 5.28125 -1.515625 C 5.695312 -1.335938 6.132812 -1.25 6.59375 -1.25 Z M 6.59375 -1.25 "/></g></g></g><g fill="#1ec373" fill-opacity="1"><g transform="translate(43.011529, 57.351941)"><g><path d="M 5.421875 0.28125 C 4.753906 0.28125 4.140625 0.148438 3.578125 -0.109375 C 3.015625 -0.378906 2.519531 -0.75 2.09375 -1.21875 C 1.664062 -1.6875 1.332031 -2.226562 1.09375 -2.84375 C 0.863281 -3.46875 0.75 -4.132812 0.75 -4.84375 C 0.75 -5.550781 0.863281 -6.210938 1.09375 -6.828125 C 1.332031 -7.441406 1.664062 -7.984375 2.09375 -8.453125 C 2.519531 -8.921875 3.015625 -9.285156 3.578125 -9.546875 C 4.140625 -9.804688 4.753906 -9.9375 5.421875 -9.9375 C 5.992188 -9.9375 6.53125 -9.84375 7.03125 -9.65625 C 7.53125 -9.46875 7.972656 -9.195312 8.359375 -8.84375 C 8.742188 -8.488281 9.039062 -8.070312 9.25 -7.59375 L 9.25 -9.671875 L 10.828125 -9.671875 L 10.828125 0 L 9.25 0 L 9.25 -2.0625 C 9.039062 -1.582031 8.742188 -1.164062 8.359375 -0.8125 C 7.972656 -0.46875 7.53125 -0.195312 7.03125 0 C 6.53125 0.1875 5.992188 0.28125 5.421875 0.28125 Z M 5.78125 -1.25 C 6.257812 -1.25 6.703125 -1.335938 7.109375 -1.515625 C 7.523438 -1.703125 7.890625 -1.957031 8.203125 -2.28125 C 8.515625 -2.601562 8.757812 -2.984375 8.9375 -3.421875 C 9.113281 -3.859375 9.203125 -4.332031 9.203125 -4.84375 C 9.203125 -5.332031 9.113281 -5.796875 8.9375 -6.234375 C 8.757812 -6.671875 8.515625 -7.050781 8.203125 -7.375 C 7.890625 -7.695312 7.523438 -7.945312 7.109375 -8.125 C 6.703125 -8.3125 6.265625 -8.40625 5.796875 -8.40625 C 5.316406 -8.40625 4.867188 -8.316406 4.453125 -8.140625 C 4.046875 -7.972656 3.6875 -7.726562 3.375 -7.40625 C 3.0625 -7.082031 2.816406 -6.703125 2.640625 -6.265625 C 2.460938 -5.835938 2.375 -5.363281 2.375 -4.84375 C 2.375 -4.300781 2.460938 -3.8125 2.640625 -3.375 C 2.816406 -2.9375 3.0625 -2.554688 3.375 -2.234375 C 3.6875 -1.921875 4.050781 -1.675781 4.46875 -1.5 C 4.882812 -1.332031 5.320312 -1.25 5.78125 -1.25 Z M 5.78125 -1.25 "/></g></g></g><g fill="#1ec373" fill-opacity="1"><g transform="translate(55.399017, 57.351941)"><g><path d="M 6.875 0.28125 C 6.34375 0.28125 5.832031 0.1875 5.34375 0 C 4.863281 -0.195312 4.429688 -0.46875 4.046875 -0.8125 C 3.671875 -1.164062 3.363281 -1.582031 3.125 -2.0625 L 3.125 0 L 1.5625 0 L 1.5625 -13.359375 L 3.203125 -13.359375 L 3.203125 -8.96875 L 3.171875 -7.640625 C 3.378906 -8.066406 3.664062 -8.453125 4.03125 -8.796875 C 4.394531 -9.148438 4.816406 -9.425781 5.296875 -9.625 C 5.773438 -9.832031 6.296875 -9.9375 6.859375 -9.9375 C 7.535156 -9.9375 8.160156 -9.804688 8.734375 -9.546875 C 9.316406 -9.285156 9.828125 -8.921875 10.265625 -8.453125 C 10.703125 -7.984375 11.035156 -7.441406 11.265625 -6.828125 C 11.503906 -6.210938 11.625 -5.550781 11.625 -4.84375 C 11.625 -4.132812 11.503906 -3.46875 11.265625 -2.84375 C 11.023438 -2.226562 10.6875 -1.6875 10.25 -1.21875 C 9.820312 -0.75 9.320312 -0.378906 8.75 -0.109375 C 8.175781 0.148438 7.550781 0.28125 6.875 0.28125 Z M 6.59375 -1.25 C 7.0625 -1.25 7.5 -1.332031 7.90625 -1.5 C 8.320312 -1.675781 8.6875 -1.921875 9 -2.234375 C 9.3125 -2.554688 9.554688 -2.9375 9.734375 -3.375 C 9.910156 -3.820312 10 -4.3125 10 -4.84375 C 10 -5.363281 9.910156 -5.84375 9.734375 -6.28125 C 9.554688 -6.71875 9.3125 -7.09375 9 -7.40625 C 8.6875 -7.726562 8.320312 -7.976562 7.90625 -8.15625 C 7.5 -8.332031 7.0625 -8.421875 6.59375 -8.421875 C 6.113281 -8.421875 5.664062 -8.328125 5.25 -8.140625 C 4.84375 -7.960938 4.484375 -7.707031 4.171875 -7.375 C 3.867188 -7.050781 3.628906 -6.671875 3.453125 -6.234375 C 3.273438 -5.796875 3.1875 -5.332031 3.1875 -4.84375 C 3.1875 -4.320312 3.273438 -3.84375 3.453125 -3.40625 C 3.628906 -2.96875 3.875 -2.585938 4.1875 -2.265625 C 4.507812 -1.941406 4.875 -1.691406 5.28125 -1.515625 C 5.695312 -1.335938 6.132812 -1.25 6.59375 -1.25 Z M 6.59375 -1.25 "/></g></g></g><g fill="#1ec373" fill-opacity="1"><g transform="translate(68.004666, 57.351941)"><g><path d="M 10.453125 -5.078125 C 10.453125 -4.992188 10.445312 -4.90625 10.4375 -4.8125 C 10.4375 -4.71875 10.429688 -4.582031 10.421875 -4.40625 L 2.40625 -4.40625 C 2.46875 -3.757812 2.65625 -3.195312 2.96875 -2.71875 C 3.28125 -2.25 3.671875 -1.882812 4.140625 -1.625 C 4.609375 -1.375 5.109375 -1.25 5.640625 -1.25 C 6.285156 -1.25 6.835938 -1.390625 7.296875 -1.671875 C 7.765625 -1.953125 8.101562 -2.363281 8.3125 -2.90625 L 10.140625 -2.90625 C 10.003906 -2.46875 9.796875 -2.054688 9.515625 -1.671875 C 9.242188 -1.285156 8.914062 -0.945312 8.53125 -0.65625 C 8.144531 -0.375 7.707031 -0.148438 7.21875 0.015625 C 6.738281 0.179688 6.222656 0.265625 5.671875 0.265625 C 4.972656 0.265625 4.320312 0.132812 3.71875 -0.125 C 3.125 -0.382812 2.601562 -0.75 2.15625 -1.21875 C 1.707031 -1.6875 1.359375 -2.226562 1.109375 -2.84375 C 0.867188 -3.46875 0.75 -4.132812 0.75 -4.84375 C 0.75 -5.550781 0.867188 -6.210938 1.109375 -6.828125 C 1.359375 -7.441406 1.707031 -7.984375 2.15625 -8.453125 C 2.601562 -8.921875 3.125 -9.285156 3.71875 -9.546875 C 4.320312 -9.816406 4.972656 -9.953125 5.671875 -9.953125 C 6.367188 -9.953125 7.007812 -9.820312 7.59375 -9.5625 C 8.175781 -9.300781 8.679688 -8.941406 9.109375 -8.484375 C 9.535156 -8.035156 9.863281 -7.515625 10.09375 -6.921875 C 10.332031 -6.335938 10.453125 -5.722656 10.453125 -5.078125 Z M 2.46875 -5.84375 L 8.78125 -5.84375 C 8.757812 -6.1875 8.660156 -6.515625 8.484375 -6.828125 C 8.304688 -7.140625 8.078125 -7.410156 7.796875 -7.640625 C 7.515625 -7.878906 7.1875 -8.066406 6.8125 -8.203125 C 6.445312 -8.335938 6.054688 -8.40625 5.640625 -8.40625 C 5.160156 -8.40625 4.703125 -8.304688 4.265625 -8.109375 C 3.828125 -7.921875 3.453125 -7.632812 3.140625 -7.25 C 2.828125 -6.875 2.601562 -6.40625 2.46875 -5.84375 Z M 2.46875 -5.84375 "/></g></g></g><g fill="#1ec373" fill-opacity="1"><g transform="translate(79.054765, 57.351941)"><g><path d="M 7.078125 0 L 5.296875 0 C 4.929688 0 4.566406 -0.046875 4.203125 -0.140625 C 3.847656 -0.234375 3.519531 -0.40625 3.21875 -0.65625 C 2.925781 -0.914062 2.691406 -1.28125 2.515625 -1.75 C 2.335938 -2.21875 2.25 -2.828125 2.25 -3.578125 L 2.25 -8.234375 L 0.109375 -8.234375 L 0.109375 -9.671875 L 2.25 -9.671875 L 2.25 -12.546875 L 3.890625 -12.5625 L 3.890625 -9.671875 L 7.078125 -9.671875 L 7.078125 -8.234375 L 3.890625 -8.234375 L 3.890625 -3.515625 C 3.890625 -3.054688 3.9375 -2.6875 4.03125 -2.40625 C 4.132812 -2.125 4.269531 -1.910156 4.4375 -1.765625 C 4.601562 -1.617188 4.785156 -1.519531 4.984375 -1.46875 C 5.191406 -1.414062 5.40625 -1.390625 5.625 -1.390625 L 7.078125 -1.390625 Z M 7.078125 0 "/></g></g></g><g fill="#1ec373" fill-opacity="1"><g transform="translate(86.680753, 57.351941)"><g><path d="M 2.453125 0.203125 C 2.128906 0.203125 1.867188 0.101562 1.671875 -0.09375 C 1.472656 -0.289062 1.375 -0.53125 1.375 -0.8125 C 1.375 -1.09375 1.472656 -1.332031 1.671875 -1.53125 C 1.867188 -1.726562 2.128906 -1.828125 2.453125 -1.828125 C 2.765625 -1.828125 3.019531 -1.726562 3.21875 -1.53125 C 3.414062 -1.332031 3.515625 -1.09375 3.515625 -0.8125 C 3.515625 -0.53125 3.414062 -0.289062 3.21875 -0.09375 C 3.019531 0.101562 2.765625 0.203125 2.453125 0.203125 Z M 2.453125 0.203125 "/></g></g></g><g fill="#1ec373" fill-opacity="1"><g transform="translate(91.584534, 57.351941)"><g><path d="M 2.375 -11.5625 C 2.039062 -11.5625 1.769531 -11.660156 1.5625 -11.859375 C 1.363281 -12.066406 1.265625 -12.316406 1.265625 -12.609375 C 1.265625 -12.890625 1.363281 -13.128906 1.5625 -13.328125 C 1.769531 -13.535156 2.039062 -13.640625 2.375 -13.640625 C 2.726562 -13.640625 3.003906 -13.535156 3.203125 -13.328125 C 3.398438 -13.128906 3.5 -12.890625 3.5 -12.609375 C 3.5 -12.316406 3.398438 -12.066406 3.203125 -11.859375 C 3.003906 -11.660156 2.726562 -11.5625 2.375 -11.5625 Z M 3.203125 0 L 1.5625 0 L 1.5625 -9.671875 L 3.203125 -9.671875 Z M 3.203125 0 "/></g></g></g><g fill="#1ec373" fill-opacity="1"><g transform="translate(96.346034, 57.351941)"><g><path d="M 5.78125 0.28125 C 5.0625 0.28125 4.394531 0.148438 3.78125 -0.109375 C 3.175781 -0.378906 2.644531 -0.75 2.1875 -1.21875 C 1.738281 -1.6875 1.382812 -2.226562 1.125 -2.84375 C 0.875 -3.46875 0.75 -4.132812 0.75 -4.84375 C 0.75 -5.550781 0.875 -6.210938 1.125 -6.828125 C 1.382812 -7.441406 1.738281 -7.984375 2.1875 -8.453125 C 2.632812 -8.921875 3.160156 -9.285156 3.765625 -9.546875 C 4.378906 -9.816406 5.050781 -9.953125 5.78125 -9.953125 C 6.5 -9.953125 7.164062 -9.816406 7.78125 -9.546875 C 8.394531 -9.285156 8.925781 -8.921875 9.375 -8.453125 C 9.832031 -7.984375 10.1875 -7.441406 10.4375 -6.828125 C 10.695312 -6.210938 10.828125 -5.550781 10.828125 -4.84375 C 10.828125 -4.132812 10.695312 -3.46875 10.4375 -2.84375 C 10.1875 -2.226562 9.832031 -1.6875 9.375 -1.21875 C 8.925781 -0.75 8.394531 -0.378906 7.78125 -0.109375 C 7.164062 0.148438 6.5 0.28125 5.78125 0.28125 Z M 5.796875 -1.265625 C 6.273438 -1.265625 6.71875 -1.351562 7.125 -1.53125 C 7.539062 -1.707031 7.898438 -1.957031 8.203125 -2.28125 C 8.515625 -2.601562 8.753906 -2.976562 8.921875 -3.40625 C 9.097656 -3.84375 9.1875 -4.320312 9.1875 -4.84375 C 9.1875 -5.351562 9.097656 -5.820312 8.921875 -6.25 C 8.753906 -6.6875 8.515625 -7.066406 8.203125 -7.390625 C 7.898438 -7.710938 7.539062 -7.960938 7.125 -8.140625 C 6.71875 -8.316406 6.273438 -8.40625 5.796875 -8.40625 C 5.316406 -8.40625 4.867188 -8.316406 4.453125 -8.140625 C 4.035156 -7.960938 3.671875 -7.710938 3.359375 -7.390625 C 3.054688 -7.066406 2.816406 -6.6875 2.640625 -6.25 C 2.460938 -5.820312 2.375 -5.351562 2.375 -4.84375 C 2.375 -4.320312 2.460938 -3.84375 2.640625 -3.40625 C 2.816406 -2.976562 3.054688 -2.601562 3.359375 -2.28125 C 3.671875 -1.957031 4.035156 -1.707031 4.453125 -1.53125 C 4.867188 -1.351562 5.316406 -1.265625 5.796875 -1.265625 Z M 5.796875 -1.265625 "/></g></g></g></svg>